<svg xmlns="http://www.w3.org/2000/svg" fill="none" viewBox="0 0 80 80" id="Bookmark-Remove-Fill--Streamline-Outlined-Fill-Material" height="80" width="80"><desc>Bookmark Remove Fill Streamline Icon: https://streamlinehq.com</desc><path fill="#008b8b" d="M70.83333333333334 22.083333333333336h-20v-5h20v5ZM16.666666666666668 70V14.583333333333334c0 -1.3333333333333335 0.5 -2.5 1.5 -3.5000000000000004 1 -1 2.166666666666667 -1.5 3.5000000000000004 -1.5h28.000000000000004c-1.2778333333333334 1.4444500000000002 -2.2361666666666666 2.9861166666666668 -2.8750000000000004 4.625 -0.6388333333333334 1.6388833333333335 -0.9583333333333333 3.4305000000000003 -0.9583333333333333 5.375 0 3.7221666666666664 1.1945000000000001 6.972166666666667 3.5833333333333335 9.75 2.3888333333333334 2.7778333333333336 5.361166666666667 4.472166666666667 8.916666666666666 5.083333333333333 0.9445 0.11116666666666666 1.7778333333333334 0.16666666666666669 2.5 0.16666666666666669s1.5555 -0.05550000000000001 2.5 -0.16666666666666669V70l-23.333333333333336 -10 -23.333333333333336 10Z" stroke-width="1.6667"></path></svg>